<svg width="35" height="23" viewBox="0 0 35 23" fill="none" xmlns="http://www.w3.org/2000/svg">
<path d="M33.0762 11.6899C33.0762 17.3395 28.379 21.9599 22.5342 21.9599C16.6894 21.9599 11.9922 17.3395 11.9922 11.6899C11.9922 6.0403 16.6894 1.41992 22.5342 1.41992C28.379 1.41992 33.0762 6.0403 33.0762 11.6899Z" fill="white" stroke="#02021D" stroke-width="2"/>
<path d="M27.5801 11.6899C27.5801 17.3395 22.8829 21.9599 17.0381 21.9599C11.1933 21.9599 6.49609 17.3395 6.49609 11.6899C6.49609 6.0403 11.1933 1.41992 17.0381 1.41992C22.8829 1.41992 27.5801 6.0403 27.5801 11.6899Z" fill="white" stroke="#02021D" stroke-width="2"/>
<path d="M23.084 11.6899C23.084 17.9142 17.9164 22.9599 11.542 22.9599C5.16752 22.9599 0 17.9142 0 11.6899C0 5.46567 5.16752 0.419922 11.542 0.419922C17.9164 0.419922 23.084 5.46567 23.084 11.6899Z" fill="#02021D"/>
</svg>
